<svg xmlns="http://www.w3.org/2000/svg" viewBox="0 0 4712.96 6858.76">
  <defs>
    <style>
      .fil0 {fill:#FFC300;fill-rule:nonzero}
    </style>
  </defs>
  <path class="fil0" d="M2154.71 4441.69c0,335.1 143.86,639.6 375.53,860.15 193.85,184.52 449.56,310.58 734.14,346.74 -116.36,33.05 -239.5,50.76 -366.62,50.76 -355.7,0 -679.33,-138.69 -913.98,-362.13 -234.74,-223.41 -380.43,-531.41 -380.43,-869.98 0,-986.39 0,-1972.77 0,-2959.1l551.38 345.58 0 2587.98zm-1633.78 -2444.89l561.46 351.91c0,706.16 0,1412.35 0,2118.52 0,475.37 204.23,907.49 533.07,1220.55 328.89,313.16 782.73,507.52 1282.28,507.52 92.88,0 184.24,-6.67 273.46,-19.63 -245.74,119.69 -522.43,187.19 -814.69,187.19 -504.09,0 -962.24,-200.75 -1294.24,-524.17 -334.02,-325.36 -541.34,-774.7 -541.34,-1269.4l0 -2572.49zm561.46 -239.2l-1082.4 -678.54 0 3490.23c0,1239.16 1041.4,2289.48 2356.42,2289.48 1315.15,0 2356.54,-1050.25 2356.54,-2289.48 0,-988.53 0,-1977.15 0,-2965.67l-2558.24 -1603.62 0 1262.59 -1072.32 -672.23 0 1167.24z"/>
</svg>
