<?xml version="1.0" encoding="UTF-8"?>
<!DOCTYPE svg PUBLIC "-//W3C//DTD SVG 1.1//EN" "http://www.w3.org/Graphics/SVG/1.1/DTD/svg11.dtd">
<!-- Creator: CorelDRAW -->
<svg xmlns="http://www.w3.org/2000/svg" xml:space="preserve" width="94.6597mm" height="22.7433mm" version="1.1" style="shape-rendering:geometricPrecision; text-rendering:geometricPrecision; image-rendering:optimizeQuality; fill-rule:evenodd; clip-rule:evenodd"
viewBox="0 0 9451.72 2270.91"
 xmlns:xlink="http://www.w3.org/1999/xlink"
 xmlns:xodm="http://www.corel.com/coreldraw/odm/2003">
 <defs>
  <style type="text/css">
   <![CDATA[
    .fil0 {fill:black;fill-rule:nonzero}
    .fil1 {fill:#FFC300;fill-rule:nonzero}
   ]]>
  </style>
 </defs>
 <g id="Layer_x0020_1">
  <metadata id="CorelCorpID_0Corel-Layer"/>
  <g id="_105553422030816">
   <g>
    <path class="fil0" d="M2499.09 1974.68c149.27,0 275.22,-62.98 352.17,-170.26l0 142.28 193.57 0 0 -1119.46 -193.57 0 0 681.02c0,191.22 -135.28,298.51 -307.86,298.51 -177.25,0 -270.55,-107.29 -270.55,-300.87l0 -678.67 -193.56 0 0 690.33c0,282.2 151.58,457.12 419.8,457.12z"/>
    <path class="fil0" d="M3752.64 1974.68c298.55,0 520.1,-263.52 520.1,-587.71 0,-326.51 -221.55,-587.72 -520.1,-587.72 -193.56,0 -326.5,86.3 -410.46,205.24l0 -678.7 -193.56 123.89 0 1497.01 193.56 0 0 -179.57c83.96,121.26 216.9,207.56 410.46,207.56zm-41.98 -167.92c-207.56,0 -368.48,-181.92 -368.48,-419.8 0,-237.89 160.93,-419.81 368.48,-419.81 223.89,0 359.18,160.93 359.18,419.81 0,256.53 -135.29,419.8 -359.18,419.8z"/>
    <path class="fil0" d="M4772.48 2270.91l556.15 -1443.67 -207.56 0 -349.83 960.88 -359.18 -960.88 -207.56 0 424.46 1119.46 86.3 0c-42.07,110.64 -85.42,214.53 -131,324.21l188.22 0z"/>
    <path class="fil0" d="M5567.2 1945.95l0 -898.51 -179.57 0 0 -216.51 159.24 0c-24.78,-68.95 -35.64,-131.14 -35.64,-187.95 0,-107.29 39.8,-189.43 102.74,-246.51 69.97,-63.44 168.18,-94.98 271.38,-94.98 88.73,0 167.9,21.07 230.92,67.82 58.34,43.21 102.17,107.96 126.04,197.52l6.34 23.77 -226.84 56.01 -5.98 -23.3c-9.09,-35.34 -26.49,-62.94 -50.4,-81.49 -23.96,-18.55 -55.15,-28.47 -91.72,-28.47 -32.86,0 -66.2,11.91 -89.45,38.5 -20.06,22.93 -33.2,57.3 -33.2,105.11 0,23.88 3.83,51.12 11.68,81.79 7.05,27.47 17.49,58.17 31.45,92.17l346.34 0 0 216.51 -331.16 0 0 898.51 -242.17 0z"/>
    <polygon class="fil0" points="6315.26,1945.95 6315.26,450.59 6557.41,325.57 6557.41,1945.95 "/>
    <path class="fil0" d="M7649.69 1823.49c-108.29,110.96 -259.37,176.35 -427.62,176.35 -168.25,0 -319.34,-65.43 -427.64,-176.31 -105.62,-108.26 -170.39,-259.68 -170.39,-435.7 0,-176.87 64.54,-328.13 169.88,-436.02 108.34,-110.98 259.64,-175.98 428.14,-175.98 168.5,0 319.8,65 428.13,175.98 105.34,107.9 169.88,259.15 169.88,436.02 0,176.02 -64.76,327.45 -170.4,435.66zm-679.17 -147.01c60.69,68.7 147.95,106.86 251.55,106.86 103.34,0 190.42,-38.54 251.1,-107.27 60.38,-68.37 95.42,-167.12 95.42,-288.25 0,-121.12 -35.04,-219.87 -95.42,-288.24 -60.68,-68.73 -147.76,-107.27 -251.1,-107.27 -103.6,0 -190.86,38.15 -251.55,106.86 -60.11,68.03 -94.98,166.68 -94.98,288.64 0,121.98 34.87,220.62 94.98,288.65z"/>
    <path class="fil0" d="M8128.18 1945.95l-344.18 -1116.23 253.43 0 234.78 827.9 224.24 -827.9 245.21 0 224.17 827.52 232.52 -827.52 253.38 0c-113.86,372.08 -227.39,744.32 -341.83,1116.23l-277.24 0 -214.64 -756.57 -212.59 756.57 -277.24 0z"/>
   </g>
   <path class="fil1" d="M713.41 1470.62c0,110.95 47.63,211.77 124.33,284.79 64.18,61.1 148.86,102.83 243.07,114.81 -38.52,10.94 -79.3,16.8 -121.39,16.8 -117.77,0 -224.92,-45.92 -302.61,-119.9 -77.72,-73.97 -125.96,-175.94 -125.96,-288.05 0,-326.59 0,-653.18 0,-979.74l182.55 114.42 0 856.87zm-540.93 -809.49l185.9 116.51c0,233.81 0,467.63 0,701.43 0,157.39 67.62,300.47 176.49,404.12 108.9,103.68 259.16,168.04 424.56,168.04 30.75,0 61,-2.21 90.54,-6.5 -81.37,39.63 -172.98,61.98 -269.74,61.98 -166.91,0 -318.6,-66.47 -428.52,-173.55 -110.59,-107.73 -179.23,-256.5 -179.23,-420.3l0 -851.74zm185.9 -79.2l-358.38 -224.66 0 1155.6c0,410.28 344.8,758.04 780.19,758.04 435.44,0 780.24,-347.74 780.24,-758.04 0,-327.3 0,-654.62 0,-981.92l-847.02 -530.95 0 418.04 -355.03 -222.57 0 386.47z"/>
  </g>
 </g>
</svg>
